<svg width="20" height="19" viewBox="0 0 20 19" fill="none" xmlns="http://www.w3.org/2000/svg">
<path d="M18.9511 7.49078L16.249 6.3019V1.32325C16.249 1.00634 15.8008 0.558167 15.4839 0.558167H4.76336C4.44645 0.558167 3.99828 1.00634 3.99828 1.32325V6.30003L1.29424 7.49078C1.07109 7.58079 0.934204 7.79644 0.934204 8.02334V18.3613C0.934204 18.6782 1.19111 18.9351 1.50802 18.9351H18.7374C19.0543 18.9351 19.3112 18.6782 19.3112 18.3613V8.02334C19.3112 7.79644 19.1743 7.58079 18.9511 7.49078ZM17.7791 8.21461L16.2471 8.97969V7.44765L17.7791 8.21461ZM15.0995 1.70766V9.74665L10.1227 12.8032L5.1459 9.74665V1.70766H15.0995ZM3.99641 8.98157L2.0837 8.21461L3.99828 7.44953V8.98157H3.99641ZM2.0837 17.7856V9.16533L9.82078 13.9677C9.91454 14.024 10.0177 14.054 10.1246 14.054C10.2296 14.054 10.3346 14.0259 10.4283 13.9677L18.1635 9.16533V17.7875H2.0837V17.7856ZM11.2722 4.00478H13.5693C13.8862 4.00478 14.1431 3.74788 14.1431 3.43097C14.1431 3.11406 13.8862 2.85716 13.5693 2.85716H11.2722C10.9553 2.85716 10.6984 3.11406 10.6984 3.43097C10.6965 3.74601 10.9534 4.00478 11.2722 4.00478ZM6.67794 6.3019H13.5693C13.8862 6.3019 14.1431 6.045 14.1431 5.72809C14.1431 5.41118 13.8862 5.15428 13.5693 5.15428H6.67794C6.36103 5.15428 6.10413 5.41118 6.10413 5.72809C6.10226 6.04313 6.35916 6.3019 6.67794 6.3019ZM6.67794 8.59715H13.5693C13.8862 8.59715 14.1431 8.34025 14.1431 8.02334C14.1431 7.70643 13.8862 7.44953 13.5693 7.44953H6.67794C6.36103 7.44953 6.10413 7.70643 6.10413 8.02334C6.10226 8.34025 6.35916 8.59715 6.67794 8.59715Z" fill="#A05195"/>
</svg>
