<svg width="54" height="51" viewBox="0 0 54 51" fill="none" xmlns="http://www.w3.org/2000/svg">
<path d="M49 32.4724C49 26.7746 45.2619 21.968 40.1461 20.4482C42.8875 18.9085 44.7783 15.6439 44.7783 11.8661C44.7783 6.60606 41.1138 2.34161 36.5915 2.34161C35.0762 2.34161 33.659 2.82371 32.4416 3.65894C30.3255 1.39175 27.4875 0 24.3701 0C21.2628 0 18.4338 1.38204 16.3196 3.63583C15.1103 2.81539 13.7058 2.34207 12.2046 2.34207C7.68321 2.34207 4.01779 6.60698 4.01779 11.8666C4.01779 15.6776 5.94268 18.9644 8.72217 20.4865C3.67405 22.0493 0 26.8231 0 32.4728V38.4803H7.45934C7.4212 38.9587 7.39623 39.4413 7.39623 39.9289V47.6133C7.39623 48.3792 8.00607 49 8.7585 49H40.2415C40.9939 49 41.6038 48.3792 41.6038 47.6133V39.9285C41.6038 39.4413 41.5779 38.9592 41.5379 38.4799H48.9995V32.4724H49ZM38.8797 46.2262H10.1208V39.9285C10.1208 33.4384 14.2162 27.81 20.311 25.9232C20.8373 25.76 21.2156 25.2913 21.2701 24.7343C21.3245 24.1769 21.0444 23.6407 20.5603 23.3759C17.3399 21.612 15.2593 17.7631 15.2593 13.5703C15.2593 7.61693 19.3461 2.77332 24.3697 2.77332C29.3933 2.77332 33.4801 7.61693 33.4801 13.5703C33.4801 17.7206 31.4303 21.5529 28.2581 23.3338C27.7763 23.6042 27.5015 24.1436 27.5624 24.7006C27.6228 25.2576 28.0065 25.7221 28.5346 25.8793C34.6258 27.6889 38.8797 33.4662 38.8797 39.9289V46.2262Z" fill="#A05195"/>
<circle cx="43.5" cy="40.5" r="9.5" fill="#F2F2F2" stroke="#A05195" stroke-width="2"/>
<path d="M44.0026 46.5C44.2796 46.5 44.5147 46.2803 44.5147 46.0146V41.5033H48.9931C49.2648 41.5033 49.5 41.2733 49.5 41.0026C49.5 40.7267 49.2648 40.5019 48.9931 40.5019H44.5147V35.9854C44.5147 35.7197 44.2796 35.5 44.0026 35.5C43.7204 35.5 43.4905 35.7197 43.4905 35.9854V40.5019H39.0121C38.7404 40.5019 38.5 40.7267 38.5 41.0026C38.5 41.2733 38.7404 41.5033 39.0121 41.5033H43.4905V46.0146C43.4905 46.2803 43.7204 46.5 44.0026 46.5Z" fill="#A05195"/>
</svg>
